<svg width="512" height="512" viewBox="0 0 512 512" xmlns="http://www.w3.org/2000/svg">
  <defs>
    <linearGradient id="bg" x1="0" y1="0" x2="0" y2="1">
      <stop offset="0" stop-color="#2a3b8f"/>
      <stop offset="1" stop-color="#6a2da0"/>
    </linearGradient>
    <radialGradient id="shine" cx="0.35" cy="0.30" r="0.7">
      <stop offset="0" stop-color="#ffffff" stop-opacity="0.30"/>
      <stop offset="1" stop-color="#ffffff" stop-opacity="0"/>
    </radialGradient>
  </defs>
  <rect x="0" y="0" width="512" height="512" rx="112" fill="url(#bg)"/>
  <rect x="0" y="0" width="512" height="512" rx="112" fill="url(#shine)"/>
  <!-- star accent -->
  <path d="M412 92 l18 38 42 6 -30 30 7 42 -37 -20 -38 20 7 -42 -30 -30 42 -6 z" fill="#ffd23f"/>
  <!-- mascot blob -->
  <circle cx="256" cy="292" r="150" fill="#f02828"/>
  <circle cx="256" cy="292" r="150" fill="url(#shine)"/>
  <!-- eyes -->
  <ellipse cx="212" cy="270" rx="44" ry="48" fill="#ffffff"/>
  <ellipse cx="300" cy="270" rx="44" ry="48" fill="#ffffff"/>
  <circle cx="220" cy="278" r="22" fill="#161226"/>
  <circle cx="308" cy="278" r="22" fill="#161226"/>
  <!-- cheeks -->
  <circle cx="186" cy="330" r="20" fill="#ff8c8c" fill-opacity="0.55"/>
  <circle cx="326" cy="330" r="20" fill="#ff8c8c" fill-opacity="0.55"/>
</svg>
